<?xml version='1.0' encoding='utf-8'?>
<svg xmlns="http://www.w3.org/2000/svg" enable-background="new 0 0 1338 946" version="1.1" viewBox="0 0 1338 946">
<style type="text/css">
	.st0{fill:#595757;}
	.st1{fill:#231815;}
	.st2{fill:#BCBCBC;}
	.st3{fill:#FAC4B1;}
	.st4{fill:#0085E8;}
	.st5{fill:#77CFF2;}
</style>
		<path class="st0" d="m771.2 433.1h-204.4s-31 143.7-19.4 178.5c11.7 35 27.3 49.8 49.5 52.1 22.3 2.3 50-19.2 53.3-77.4 2-33 7.7-113.7 7.7-113.7h22s5.8 80.7 7.7 113.7c3.5 58.2 31 79.7 53.3 77.4s37.9-17.1 49.5-52.1c11.8-34.7-19.2-178.5-19.2-178.5z"/>
		<path class="st1" d="m600.1 671.7c-1.4 0-2.6 0-3.9-0.2-26.4-2.7-43.8-20.3-56-57.2-12-35.9 15.9-167.6 19.2-182.6 0.8-3.5 3.8-5.9 7.4-5.9h204.4c3.6 0 6.7 2.4 7.4 5.9 3.2 14.8 31.2 146.7 19.2 182.6-12.3 37-29.5 54.5-56 57.2-11.4 1.2-23.2-2.7-32.9-11.1-11.8-10-26.2-30.9-28.8-73.3-1.5-27-5.8-86.3-7.3-106.6h-7.8c-1.5 20.4-5.6 79.8-7.3 106.6-2.6 42.6-17 63.3-28.8 73.3-8.5 7.3-18.7 11.3-28.8 11.3zm58-206.4h22c3.9 0 7.3 3 7.6 7 0 0.8 5.9 81.2 7.7 113.9 1.7 28.9 10 51.2 23.5 62.7 6.7 5.6 14.2 8.3 21.5 7.6 20-2 32.9-16.1 43.2-46.9 8.6-25.7-9.2-125.2-18.3-168.7h-192.5c-9.1 43.3-27 142.8-18.3 168.7 10.3 30.9 23.2 45 43.2 46.9 7.3 0.8 15-2 21.5-7.6 13.5-11.4 21.8-33.6 23.5-62.7 2-32.7 7.7-113.1 7.7-113.9 0.4-4 3.6-7 7.7-7z"/>
		<path class="st2" d="m889.6 357.4h-441.3c-29.1 70-52.4 227.2-40.7 271.8s46.6 95.1 81.5 99 106.8-23.3 110.7-79.7c3.9-56.3 11.7-258.2 11.7-258.2h115.1s7.7 201.9 11.7 258.2c3.9 56.3 75.7 83.4 110.7 79.7 35-3.8 70-54.4 81.5-99s-11.8-201.8-40.9-271.8z"/>
		<path class="st1" d="m496 736.2c-2.7 0-5.3-0.2-7.9-0.5-38.6-4.2-75.7-57.7-88-104.6-12.3-47.1 11.2-204.7 41-276.7 1.2-2.9 3.9-4.7 7-4.7h441.3c3 0 5.8 1.8 7 4.7 30 71.9 53.5 229.6 41 276.7-12.3 46.9-49.4 100.4-88 104.6-23 2.6-60.7-6.8-88-29.7-18.8-15.7-29.5-35.4-31-56.9-3.5-49.7-10-214.4-11.4-251.2h-100.5c-1.4 36.6-7.9 201.4-11.4 251.2-1.5 21.5-12.3 41.2-31 56.9-24.3 20.5-56.9 30.2-80.1 30.2zm-42.5-371.2c-27 69.2-49.5 220.3-38.6 262.3 13.6 52.4 49.8 90.6 75.1 93.4 19.4 2.1 52.9-6.4 76.6-26.2 15.7-13.2 24.4-28.8 25.6-46.3 3.8-55.6 11.5-255.9 11.7-258.1 0.2-4.1 3.5-7.3 7.6-7.3h115.1c4.1 0 7.4 3.2 7.6 7.3 0.2 2 7.9 202.5 11.7 258.1 1.2 17.6 9.8 33.2 25.6 46.3 23.9 20 57.2 28.5 76.6 26.2 25.1-2.7 61.3-41 75.1-93.4 10.9-41.9-11.5-193.1-38.6-262.3h-431.1z"/>
		<path class="st3" d="m244.9 796.1c-0.2 10.4-0.3 16.2-0.3 16.2-54.5 27.3-106.8 68.1-75 100 31.8 31.8 104.5 22.7 154.5 0s90.3-38.6 90.3-38.6c25.6 20.4 68.8 50 93.7 34.1s13.6-43.2-22.7-61.3-43.2-29.5-43.2-29.5c-0.6-5.1-1.4-11.7-2.3-19.2-27.4 4.1-59.2 6.5-93.1 6.5-37.5-0.3-72.5-3.2-101.9-8.2z"/>
		<path class="st1" d="m233.1 940.3c-30.1 0-53.8-7.9-68.8-22.9-9.4-9.4-13.3-20.4-11.4-32.3 5.3-32.3 53.2-61.8 84.2-77.7 0-2.7 0.2-6.7 0.2-11.7 0-2.3 1.1-4.2 2.7-5.8 1.7-1.5 3.9-2 6.1-1.7 30 5.1 64.8 7.7 100.7 7.7 32.4 0 64.2-2.3 92.1-6.4 2-0.3 4.1 0.3 5.8 1.5s2.7 3.2 2.9 5.1c0.8 6.7 1.4 12.4 2 17.1 2.7 3 12.6 12.4 39.4 25.7 24.7 12.4 39.4 29.1 40.3 45.7 0.6 11.4-5.5 21.5-16.8 28.8-21.4 13.6-54.7 2.9-99-31.8-11.4 4.5-45.7 18.6-85.9 36.8-27.1 12.3-58.8 20-86.9 21.1-2.7 0.8-5.1 0.8-7.6 0.8zm19.3-135.4c0 4.7-0.2 7.3-0.2 7.4 0 2.9-1.7 5.5-4.2 6.7-47.1 23.5-76.9 49.2-80.1 68.8-1.1 7 1.2 13.2 7.1 19.1 27.9 27.9 96.2 21.1 146-1.5 49.5-22.6 90.3-38.6 90.7-38.8 2.6-1.1 5.5-0.6 7.6 1.1 39.4 31.5 69.5 43.5 84.8 33.6 6.8-4.4 10.1-9.5 9.8-15.3-0.6-10.8-12.7-23.3-32-32.9-36.5-18.2-45-30.1-46.3-32.4-0.6-0.9-0.9-1.8-1.1-2.9-0.5-3.3-0.9-7.3-1.4-11.7-26.7 3.6-56.3 5.5-86.5 5.5-33.1 0-65.6-2.3-94.2-6.7zm-7.8 7.3z"/>
		<path class="st4" d="m1093 796.1c-1.4-68-9.8-336.3-61-517.6-59.1-209-224.9-265.7-363-265.7s-304 56.7-363 265.7c-51.2 181.3-59.7 449.6-61 517.6 29.4 5 64.4 7.9 101.9 7.9 33.9 0 65.7-2.4 93.1-6.5-7.6-69.2-20-228.2-15.9-269.3 4.5-45.4 13.6-97.7 29.5-122.7h430.5c15.9 25 25 77.2 29.5 122.7 4.1 40.9-8.5 199.9-15.9 269.3 27.4 4.1 59.2 6.5 93.1 6.5 37.8 0 72.8-2.9 102.2-7.9z"/>
		<path class="st1" d="m991.1 811.6c-33.2 0-65.7-2.3-94.3-6.5-4.1-0.6-6.8-4.2-6.4-8.3 7.9-72.2 19.8-228.7 15.9-267.6-5.5-54.1-14.7-94.8-26.4-115.9h-421.9c-11.7 21.1-20.9 61.8-26.4 115.9-3.9 38.9 8 195.4 15.9 267.6 0.5 4.1-2.4 7.7-6.4 8.3-28.6 4.2-61.2 6.5-94.3 6.5-36.8 0-72.5-2.7-103.3-8-3.6-0.6-6.4-3.9-6.4-7.6 1.5-76.3 10.4-339.4 61.3-519.6 27.4-97.1 79.7-169.6 155.2-215.6s158.9-55.6 215.4-55.6 139.6 9.7 215 55.6c75.6 46 127.8 118.6 155.2 215.6 50.9 180.2 59.8 443.3 61.3 519.6 0 3.8-2.6 7-6.4 7.6-30.6 5.3-66.2 8-103 8zm-85-20.6c26 3.5 55.3 5.3 84.8 5.3 33.5 0 65.9-2.3 94.2-6.7-1.8-83.4-11.7-335.6-60.7-509.1-26.4-93.3-76.3-162.8-148.6-206.9-72-44-152.3-53.3-206.8-53.3s-134.8 9.2-207.2 53.5c-72.2 44.1-122.2 113.6-148.6 206.9-49.1 173.5-58.8 425.7-60.6 509 28.5 4.4 60.9 6.7 94.2 6.7 29.7 0 58.8-1.8 84.8-5.3-7.6-73.3-19.2-223.2-15.1-263.5 4.2-42.1 12.9-98.1 30.7-126 1.4-2.1 3.8-3.5 6.4-3.5h430.5c2.6 0 5 1.4 6.4 3.5 17.7 27.9 26.5 83.9 30.7 126 4.2 40.2-7.3 190.3-15.1 263.4z"/>
		<path class="st3" d="m1093.3 812.2s0-5.8-0.3-16.2c-29.4 5-64.4 7.9-101.9 7.9-33.9 0-65.7-2.4-93.1-6.5-0.8 7.6-1.5 14.1-2.3 19.2 0 0-6.8 11.4-43.2 29.5-36.3 18.2-47.7 45.4-22.7 61.3s68.1-13.6 93.7-34.1c0 0 40.3 15.9 90.3 38.6s122.7 31.8 154.5 0c31.8-31.7-20.5-72.4-75-99.7z"/>
		<path class="st1" d="m1104.8 940.3c-2.4 0-4.8 0-7.3-0.2-28.2-1.1-59.8-8.8-86.9-21.1-40.1-18.3-74.5-32.3-85.9-36.8-44.4 34.7-77.5 45.4-99 31.8-11.5-7.3-17.4-17.6-16.8-28.8 0.9-16.7 15.6-33.3 40.3-45.7 26.8-13.3 36.6-22.7 39.4-25.7 0.6-4.7 1.2-10.4 2-17.1 0.2-2.1 1.2-3.9 2.9-5.1s3.6-1.8 5.8-1.5c27.9 4.2 59.7 6.4 92.1 6.4 35.9 0 70.7-2.7 100.7-7.7 2.1-0.3 4.4 0.3 6.1 1.7s2.7 3.5 2.7 5.8c0.2 5 0.2 8.9 0.2 11.7 31 15.9 78.9 45.4 84.2 77.7 2 11.7-2.1 22.9-11.4 32.3-15.3 14.6-38.9 22.3-69.1 22.3zm-181.4-74.3c0.9 0 1.8 0.2 2.7 0.5 0.5 0.2 41 16.2 90.7 38.8 49.8 22.7 118.1 29.4 146 1.5 5.9-5.9 8.3-12.3 7.1-19.1-3.2-19.5-33.2-45.3-80.1-68.8-2.6-1.2-4.2-3.9-4.2-6.7 0 0 0-2.6-0.2-7.4-28.8 4.2-61.2 6.5-94.5 6.5-30.1 0-59.8-1.8-86.5-5.5-0.5 4.4-0.9 8.3-1.4 11.7-0.2 1.1-0.5 2-1.1 2.9-1.4 2.3-9.8 14.2-46.2 32.4-19.1 9.5-31.3 22.1-32 32.9-0.3 5.8 3 10.9 9.8 15.3 15.4 9.8 45.6-2.1 84.8-33.6 1.8-0.8 3.4-1.4 5.1-1.4z"/>
		<path class="st0" d="m875.2 155.9c-45.8-55.8-100.1-86.4-206.2-86.4s-160.4 30.6-206.3 86.3c-56.9 69.1-47.6 298.2 50 327.1l1.4-23.6s0 34.1 31.8 46.9c7.6-6.1 12.9-17.4 12.9-17.4 12.1 19.7 25 28 37.9 34.8s37.1 18.9 45.4 24.2c15.9-9.1 27-28 27-28s11.1 18.9 27 28c8.3-5.3 32.6-17.4 45.4-24.2 12.9-6.8 25.7-15.1 37.9-34.8 0 0 5.3 11.4 12.9 17.4 31.8-12.9 31.8-46.9 31.8-46.9l1.4 23.6c97.3-28.9 106.5-258 49.7-327z"/>
		<path class="st1" d="m695.9 555.5c-1.4 0-2.6-0.3-3.8-1.1-9.8-5.6-17.9-14.5-23.2-21.2-5.1 6.8-13.3 15.6-23.2 21.2-2.4 1.4-5.5 1.4-7.9-0.2-5.6-3.6-20-11.1-31.5-17-5-2.6-9.7-5-13.3-7-10.6-5.6-22.4-12.7-33.9-27.6-2.3 3.2-5.3 6.7-8.6 9.4-2.1 1.7-5 2.1-7.6 1.1-13.6-5.5-22.3-14.4-27.6-23.3-1.5 0.6-3.3 0.8-4.8 0.2-34.1-10.1-60.4-42.6-76.2-94-25.9-84.5-15.3-199 22.6-245 25.6-31.2 52.1-52.1 83.3-66.2 34.4-15.4 76.5-22.8 128.8-22.8s94.3 7.6 128.7 22.9c31.2 13.9 57.5 35 83.3 66.2 37.9 46 48.5 160.5 22.6 245.2-15.7 51.3-42.1 83.9-76.2 94-1.7 0.5-3.3 0.5-4.8-0.2-5.3 8.9-13.9 17.7-27.6 23.3-2.6 1.1-5.5 0.6-7.6-1.1-3.3-2.7-6.2-6.1-8.6-9.4-11.5 14.8-23.3 22-33.9 27.6-3.8 2-8.5 4.4-13.3 7-11.5 5.9-25.9 13.3-31.5 17-1.4 0.6-2.8 1-4.2 1zm-137.2-74.2c2.6 0 5 1.4 6.5 3.6 11.5 18.6 23.6 26 35 32.1 3.6 2 8.3 4.4 13.3 7 10.1 5.3 21.4 11.1 28.5 15.1 12.1-8.6 20.4-22.7 20.4-22.9 1.4-2.3 3.8-3.8 6.5-3.8s5.1 1.4 6.5 3.8c0.2 0.2 8.5 14.4 20.4 22.9 7.1-4.1 18.3-9.8 28.5-15.1 5-2.6 9.5-5 13.3-7 11.4-6.1 23.5-13.5 35-32.1 1.5-2.4 4.1-3.8 6.8-3.6s5.3 1.8 6.4 4.4c1.1 2.1 3.9 7.4 7.6 11.5 22.4-12 22.7-37.6 22.7-37.9 0-4.1 3.3-7.4 7.4-7.6 4.2-0.2 7.6 3 7.7 7.1l0.8 13.3c18.9-8.9 41.5-30.3 56.9-80.4 11.7-38 16.1-85.4 12.3-129.8-3.8-44.2-15.4-81.2-32-101.3-41.2-50-91-83.5-200.2-83.5s-159 33.5-200.4 83.6c-16.5 20-28.2 56.9-32 101.3-3.8 44.5 0.6 91.8 12.3 129.8 15.3 50.1 38 71.6 56.9 80.4l0.8-13.3c0.3-4.1 3.6-7.3 7.7-7.1s7.4 3.5 7.4 7.6c0 1.1 0.5 26 22.7 37.9 3.6-4.1 6.5-9.4 7.6-11.5 1.2-2.6 3.6-4.2 6.4-4.4 0-0.1 0.2-0.1 0.3-0.1z"/>
	<path class="st1" d="m169.7 918.2c-0.3 0-0.8 0-1.1-0.2-3.3-0.6-5.5-3.8-4.8-7 3.8-20.9 17.4-39.4 39.5-53.5 16.4-10.4 31.3-14.8 32-15 3.2-0.9 6.5 0.9 7.6 4.1 0.9 3.2-0.9 6.5-4.1 7.4-0.6 0.2-55.3 16.5-63 59.1-0.7 3.1-3.2 5.1-6.1 5.1z"/>
	<path class="st1" d="m193.5 932.9c-0.3 0-0.8 0-1.1-0.2-3.3-0.6-5.5-3.8-4.8-7 3.8-20.9 17.4-39.4 39.5-53.5 16.4-10.4 31.3-14.8 32-15 3.2-0.9 6.5 0.9 7.6 4.1 0.9 3.2-0.9 6.5-4.1 7.4-0.6 0.2-55.3 16.5-63 59.1-0.7 3-3.3 5.1-6.1 5.1z"/>
	<path class="st1" d="m227.1 938.8c-0.8 0-1.5-0.2-2.3-0.5-3-1.2-4.5-4.8-3.3-7.9 13.5-32.6 65.1-58.9 67.2-60 3-1.5 6.7-0.3 8.2 2.7s0.3 6.7-2.7 8.2c-0.5 0.3-49.8 25.3-61.6 53.8-1 2.2-3.3 3.7-5.5 3.7z"/>
	<path class="st1" d="m1164 918.2c-2.9 0-5.5-2.1-5.9-5-7.7-42.6-62.4-58.8-63-59.1-3.2-0.9-5-4.2-4.1-7.6 0.9-3.2 4.2-5 7.6-4.1 0.6 0.2 15.7 4.5 32 15 22.1 14.1 35.7 32.6 39.5 53.5 0.6 3.3-1.5 6.5-4.8 7-0.5 0.3-1 0.3-1.3 0.3z"/>
	<path class="st1" d="m1140.4 932.9c-2.9 0-5.5-2.1-5.9-5-7.7-42.6-62.4-58.8-63-59.1-3.2-0.9-5-4.2-4.1-7.6 0.9-3.2 4.2-5 7.6-4.1 0.6 0.2 15.7 4.5 32 15 22.1 14.1 35.7 32.6 39.5 53.5 0.6 3.3-1.5 6.5-4.8 7-0.7 0.3-1 0.3-1.3 0.3z"/>
	<path class="st1" d="m1106.8 938.8c-2.4 0-4.7-1.4-5.6-3.8-11.8-28.5-61-53.5-61.5-53.8-3-1.5-4.2-5.1-2.7-8.2 1.5-3 5.1-4.2 8.2-2.7 2.1 1.1 53.8 27.4 67.2 60 1.2 3-0.2 6.7-3.3 7.9-0.8 0.5-1.6 0.6-2.3 0.6z"/>
	<circle class="st5" cx="567.2" cy="587" r="10.1"/>
	<circle class="st5" cx="764.8" cy="759.3" r="19.4"/>
	<ellipse class="st5" cx="664.7" cy="898.8" rx="66.9" ry="23"/>
	<ellipse class="st5" cx="743" cy="904" rx="23.3" ry="8.9"/>
	<circle class="st5" cx="561" cy="820.4" r="16.4"/>
</svg>